<svg height="512pt" viewBox="0 0 512 512" width="512pt" xmlns="http://www.w3.org/2000/svg"><g fill="#d8d8d8"><path d="m465.246094 111.214844h-418.695313c-4.273437 0-7.738281-3.464844-7.738281-7.742188 0-4.273437 3.464844-7.738281 7.738281-7.738281h418.695313c4.273437 0 7.738281 3.464844 7.738281 7.738281 0 4.277344-3.464844 7.742188-7.738281 7.742188zm0 0"/><path d="m465.246094 263.738281h-418.695313c-4.273437 0-7.738281-3.464843-7.738281-7.738281s3.464844-7.738281 7.738281-7.738281h418.695313c4.273437 0 7.738281 3.464843 7.738281 7.738281s-3.464844 7.738281-7.738281 7.738281zm0 0"/><path d="m465.246094 415.933594h-418.695313c-4.273437 0-7.738281-3.460938-7.738281-7.738282 0-4.273437 3.464844-7.738281 7.738281-7.738281h418.695313c4.273437 0 7.738281 3.464844 7.738281 7.738281 0 4.277344-3.464844 7.738282-7.738281 7.738282zm0 0"/></g><path d="m130.367188 147.015625c-16.503907 0-29.886719-13.382813-29.886719-29.886719v-27.308594c0-16.507812 13.382812-29.886718 29.886719-29.886718 16.503906 0 29.886718 13.378906 29.886718 29.886718v27.308594c0 16.507813-13.378906 29.886719-29.886718 29.886719zm0 0" fill="#fd8f31"/><path d="m226.039062 147.015625c-16.507812 0-29.886718-13.382813-29.886718-29.886719v-27.308594c0-16.507812 13.378906-29.886718 29.886718-29.886718 16.503907 0 29.886719 13.378906 29.886719 29.886718v27.308594c0 16.507813-13.378906 29.886719-29.886719 29.886719zm0 0" fill="#fcb038"/><path d="m321.710938 147.015625c-16.507813 0-29.886719-13.382813-29.886719-29.886719v-27.308594c0-16.507812 13.378906-29.886718 29.886719-29.886718 16.503906 0 29.882812 13.378906 29.882812 29.886718v27.308594c.003906 16.507813-13.378906 29.886719-29.882812 29.886719zm0 0" fill="#fd8f31"/><path d="m203.195312 299.542969c-16.507812 0-29.886718-13.382813-29.886718-29.886719v-27.308594c0-16.507812 13.378906-29.886718 29.886718-29.886718 16.503907 0 29.882813 13.378906 29.882813 29.886718v27.308594c.003906 16.503906-13.378906 29.886719-29.882813 29.886719zm0 0" fill="#fd8f31"/><path d="m298.867188 299.542969c-16.507813 0-29.886719-13.382813-29.886719-29.886719v-27.308594c0-16.507812 13.378906-29.886718 29.882812-29.886718 16.507813 0 29.886719 13.378906 29.886719 29.886718v27.308594c.003906 16.503906-13.378906 29.886719-29.882812 29.886719zm0 0" fill="#fcb038"/><path d="m394.535156 299.542969c-16.503906 0-29.886718-13.382813-29.886718-29.886719v-27.308594c0-16.507812 13.382812-29.886718 29.886718-29.886718 16.507813 0 29.886719 13.378906 29.886719 29.886718v27.308594c0 16.503906-13.378906 29.886719-29.886719 29.886719zm0 0" fill="#fd8f31"/><path d="m130.367188 451.738281c-16.503907 0-29.886719-13.382812-29.886719-29.886719v-27.3125c0-16.503906 13.382812-29.882812 29.886719-29.882812 16.503906 0 29.886718 13.378906 29.886718 29.882812v27.3125c0 16.503907-13.378906 29.886719-29.886718 29.886719zm0 0" fill="#fd8f31"/><path d="m226.039062 451.738281c-16.507812 0-29.886718-13.382812-29.886718-29.886719v-27.3125c0-16.503906 13.378906-29.882812 29.886718-29.882812 16.503907 0 29.886719 13.378906 29.886719 29.882812v27.3125c0 16.503907-13.378906 29.886719-29.886719 29.886719zm0 0" fill="#fcb038"/><path d="m321.710938 451.738281c-16.507813 0-29.886719-13.382812-29.886719-29.886719v-27.3125c0-16.503906 13.378906-29.882812 29.886719-29.882812 16.503906 0 29.882812 13.378906 29.882812 29.882812v27.3125c.003906 16.503907-13.378906 29.886719-29.882812 29.886719zm0 0" fill="#fd8f31"/><path d="m24.078125 512h-1.265625c-12.597656 0-22.8125-10.214844-22.8125-22.8125v-466.375c0-12.597656 10.214844-22.8125 22.8125-22.8125h1.269531c12.597657 0 22.8125 10.214844 22.8125 22.8125v466.375c-.003906 12.597656-10.214843 22.8125-22.816406 22.8125zm0 0" fill="#0d6e9a"/><path d="m488.984375 512h-1.269531c-12.597656 0-22.8125-10.214844-22.8125-22.8125v-466.375c0-12.597656 10.214844-22.8125 22.8125-22.8125h1.269531c12.597656 0 22.8125 10.214844 22.8125 22.8125v466.375c0 12.597656-10.214844 22.8125-22.8125 22.8125zm0 0" fill="#09627a"/></svg>